# xmcd CD database file
#
# Track frame offsets:
#	150
#	37138
#	96740
#	144411
#	189115
#	232586
#
# Disc length: 3501 seconds
#
# Revision: 0
# Processed by: cddbd v1.5.1PL0 Copyright (c) Steve Scherf et al.
# Submitted via: CDex 1.51
#
DISCID=480dab06
DTITLE=Phil Woods - Woods plays Woods
DYEAR=2000
DGENRE=Jazz
TTITLE0=Samba Du Bois
TTITLE1=Goodbye Mr. Evans
TTITLE2=Sittin' Here
TTITLE3=And When We'Re Young
TTITLE4=Pensive
TTITLE5=It's You Or No One
EXTD=YEAR: 2000
EXTT0=
EXTT1=
EXTT2=
EXTT3=
EXTT4=
EXTT5=
PLAYORDER=
